<svg width="11" height="7" viewBox="0 0 11 7" fill="none" xmlns="http://www.w3.org/2000/svg">
    <ellipse cx="2.96257" cy="2.92447" rx="1.08375" ry="1.03493" transform="rotate(10 2.96257 2.92447)" fill="black"/>
    <line x1="0.4" y1="-0.4" x2="1.62059" y2="-0.4" transform="matrix(0.654169 0.756349 -0.808563 0.58841 1.14676 0.740326)" stroke="#188CC5" stroke-width="0.8" stroke-linecap="round" stroke-linejoin="round"/>
    <line x1="3.32207" y1="0.766727" x2="3.16596" y2="1.65207" stroke="#188CC5" stroke-width="0.8" stroke-linecap="round" stroke-linejoin="round"/>
    <line x1="0.4" y1="-0.4" x2="0.850314" y2="-0.4" transform="matrix(-0.711497 0.702689 -0.74311 -0.669169 3.84298 3.9567)" stroke="#188CC5" stroke-width="0.8" stroke-linecap="round"/>
    <ellipse cx="1.78108" cy="1.04019" rx="1.78108" ry="1.04019" transform="matrix(0.988069 -0.154011 0.194189 0.980964 5.7004 3)" fill="black"/>
    <line x1="0.4" y1="-0.4" x2="0.788449" y2="-0.4" transform="matrix(-0.200605 0.979672 -0.980154 -0.198238 5.9847 4.50821)" stroke="#188CC5" stroke-width="0.8" stroke-linecap="round"/>
    <line x1="0.4" y1="-0.4" x2="0.681791" y2="-0.4" transform="matrix(0.165975 0.98613 -0.991735 0.128301 6.99301 4.85727)" stroke="#188CC5" stroke-width="0.8" stroke-linecap="round"/>
    <line x1="4.97783" y1="4.87531" x2="4.88073" y2="5.42601" stroke="#188CC5" stroke-width="0.8" stroke-linecap="round"/>
    <ellipse cx="2.96257" cy="2.92447" rx="1.08375" ry="1.03493" transform="rotate(10 2.96257 2.92447)" fill="black"/>
    <ellipse cx="4.24287" cy="4.14873" rx="0.613638" ry="0.563798" transform="rotate(10 4.24287 4.14873)" fill="black"/>
    <line x1="0.4" y1="-0.4" x2="1.62059" y2="-0.4" transform="matrix(0.654169 0.756349 -0.808563 0.58841 1.14676 0.740326)" stroke="#188CC5" stroke-width="0.8" stroke-linecap="round" stroke-linejoin="round"/>
    <line x1="3.32207" y1="0.766727" x2="3.16596" y2="1.65207" stroke="#188CC5" stroke-width="0.8" stroke-linecap="round" stroke-linejoin="round"/>
    <line x1="0.4" y1="-0.4" x2="0.850314" y2="-0.4" transform="matrix(-0.711497 0.702689 -0.74311 -0.669169 3.84298 3.9567)" stroke="#188CC5" stroke-width="0.8" stroke-linecap="round"/>
    <ellipse cx="1.78108" cy="1.04019" rx="1.78108" ry="1.04019" transform="matrix(0.988069 -0.154011 0.194189 0.980964 5.7004 3)" fill="black"/>
    <line x1="0.4" y1="-0.4" x2="0.788449" y2="-0.4" transform="matrix(-0.200605 0.979672 -0.980154 -0.198238 5.9847 4.50821)" stroke="#188CC5" stroke-width="0.8" stroke-linecap="round"/>
    <line x1="0.4" y1="-0.4" x2="0.681791" y2="-0.4" transform="matrix(0.165975 0.98613 -0.991735 0.128301 6.99301 4.85727)" stroke="#188CC5" stroke-width="0.8" stroke-linecap="round"/>
    <ellipse cx="5.39161" cy="4.46578" rx="0.736365" ry="0.676558" transform="rotate(10 5.39161 4.46578)" fill="black"/>
    <line x1="4.97783" y1="4.87531" x2="4.88073" y2="5.42601" stroke="#188CC5" stroke-width="0.8" stroke-linecap="round"/>
    <ellipse cx="2.96257" cy="2.92447" rx="1.08375" ry="1.03493" transform="rotate(10 2.96257 2.92447)" fill="black"/>
    <line x1="0.4" y1="-0.4" x2="1.62059" y2="-0.4" transform="matrix(0.654169 0.756349 -0.808563 0.58841 1.14676 0.740326)" stroke="#188CC5" stroke-width="0.8" stroke-linecap="round" stroke-linejoin="round"/>
    <line x1="3.32207" y1="0.766727" x2="3.16596" y2="1.65207" stroke="#188CC5" stroke-width="0.8" stroke-linecap="round" stroke-linejoin="round"/>
    <line x1="0.4" y1="-0.4" x2="0.850314" y2="-0.4" transform="matrix(-0.711497 0.702689 -0.74311 -0.669169 3.84298 3.9567)" stroke="#188CC5" stroke-width="0.8" stroke-linecap="round"/>
    <ellipse cx="1.78108" cy="1.04019" rx="1.78108" ry="1.04019" transform="matrix(0.988069 -0.154011 0.194189 0.980964 5.7004 3)" fill="black"/>
    <line x1="0.4" y1="-0.4" x2="0.788449" y2="-0.4" transform="matrix(-0.200605 0.979672 -0.980154 -0.198238 5.9847 4.50821)" stroke="#188CC5" stroke-width="0.8" stroke-linecap="round"/>
    <line x1="0.4" y1="-0.4" x2="0.681791" y2="-0.4" transform="matrix(0.165975 0.98613 -0.991735 0.128301 6.99301 4.85727)" stroke="#188CC5" stroke-width="0.8" stroke-linecap="round"/>
    <line x1="4.97783" y1="4.87531" x2="4.88073" y2="5.42601" stroke="#188CC5" stroke-width="0.8" stroke-linecap="round"/>
    <ellipse cx="2.96257" cy="2.92447" rx="1.08375" ry="1.03493" transform="rotate(10 2.96257 2.92447)" fill="black"/>
    <ellipse cx="4.24287" cy="4.14873" rx="0.613638" ry="0.563798" transform="rotate(10 4.24287 4.14873)" fill="black"/>
    <line x1="0.4" y1="-0.4" x2="1.62059" y2="-0.4" transform="matrix(0.654169 0.756349 -0.808563 0.58841 1.14676 0.740326)" stroke="#188CC5" stroke-width="0.8" stroke-linecap="round" stroke-linejoin="round"/>
    <line x1="3.32207" y1="0.766727" x2="3.16596" y2="1.65207" stroke="#188CC5" stroke-width="0.8" stroke-linecap="round" stroke-linejoin="round"/>
    <line x1="0.4" y1="-0.4" x2="0.850314" y2="-0.4" transform="matrix(-0.711497 0.702689 -0.74311 -0.669169 3.84298 3.9567)" stroke="#188CC5" stroke-width="0.8" stroke-linecap="round"/>
    <ellipse cx="1.78108" cy="1.04019" rx="1.78108" ry="1.04019" transform="matrix(0.988069 -0.154011 0.194189 0.980964 5.7004 3)" fill="black"/>
    <line x1="0.4" y1="-0.4" x2="0.788449" y2="-0.4" transform="matrix(-0.200605 0.979672 -0.980154 -0.198238 5.9847 4.50821)" stroke="#188CC5" stroke-width="0.8" stroke-linecap="round"/>
    <line x1="0.4" y1="-0.4" x2="0.681791" y2="-0.4" transform="matrix(0.165975 0.98613 -0.991735 0.128301 6.99301 4.85727)" stroke="#188CC5" stroke-width="0.8" stroke-linecap="round"/>
    <ellipse cx="5.39161" cy="4.46578" rx="0.736365" ry="0.676558" transform="rotate(10 5.39161 4.46578)" fill="black"/>
    <line x1="4.97783" y1="4.87531" x2="4.88073" y2="5.42601" stroke="#188CC5" stroke-width="0.8" stroke-linecap="round"/>
</svg>
