<svg width="52" height="20" viewBox="0 0 52 20" fill="none" xmlns="http://www.w3.org/2000/svg">
<ellipse cx="12.9626" cy="2.92447" rx="1.08375" ry="1.03493" transform="rotate(10 12.9626 2.92447)" fill="black"/>
<line x1="0.4" y1="-0.4" x2="1.62059" y2="-0.4" transform="matrix(0.654169 0.756349 -0.808563 0.58841 11.1468 0.740311)" stroke="#188CC5" stroke-width="0.8" stroke-linecap="round" stroke-linejoin="round"/>
<line x1="13.3221" y1="0.766712" x2="13.166" y2="1.65206" stroke="#188CC5" stroke-width="0.8" stroke-linecap="round" stroke-linejoin="round"/>
<line x1="0.4" y1="-0.4" x2="0.850314" y2="-0.4" transform="matrix(-0.711497 0.702689 -0.74311 -0.669169 13.843 3.9567)" stroke="#188CC5" stroke-width="0.8" stroke-linecap="round"/>
<ellipse cx="1.78108" cy="1.04019" rx="1.78108" ry="1.04019" transform="matrix(0.988069 -0.154011 0.194189 0.980964 15.7004 3.00002)" fill="black"/>
<line x1="0.4" y1="-0.4" x2="0.788449" y2="-0.4" transform="matrix(-0.200605 0.979672 -0.980154 -0.198238 15.9847 4.50821)" stroke="#188CC5" stroke-width="0.8" stroke-linecap="round"/>
<line x1="0.4" y1="-0.4" x2="0.681791" y2="-0.4" transform="matrix(0.165975 0.98613 -0.991735 0.128301 16.993 4.85727)" stroke="#188CC5" stroke-width="0.8" stroke-linecap="round"/>
<line x1="14.9778" y1="4.87532" x2="14.8807" y2="5.42603" stroke="#188CC5" stroke-width="0.8" stroke-linecap="round"/>
<ellipse cx="12.9626" cy="2.92447" rx="1.08375" ry="1.03493" transform="rotate(10 12.9626 2.92447)" fill="black"/>
<ellipse cx="14.2429" cy="4.14871" rx="0.613638" ry="0.563798" transform="rotate(10 14.2429 4.14871)" fill="black"/>
<line x1="0.4" y1="-0.4" x2="1.62059" y2="-0.4" transform="matrix(0.654169 0.756349 -0.808563 0.58841 11.1468 0.740311)" stroke="#188CC5" stroke-width="0.8" stroke-linecap="round" stroke-linejoin="round"/>
<line x1="13.3221" y1="0.766712" x2="13.166" y2="1.65206" stroke="#188CC5" stroke-width="0.8" stroke-linecap="round" stroke-linejoin="round"/>
<line x1="0.4" y1="-0.4" x2="0.850314" y2="-0.4" transform="matrix(-0.711497 0.702689 -0.74311 -0.669169 13.843 3.9567)" stroke="#188CC5" stroke-width="0.8" stroke-linecap="round"/>
<ellipse cx="1.78108" cy="1.04019" rx="1.78108" ry="1.04019" transform="matrix(0.988069 -0.154011 0.194189 0.980964 15.7004 3.00002)" fill="black"/>
<line x1="0.4" y1="-0.4" x2="0.788449" y2="-0.4" transform="matrix(-0.200605 0.979672 -0.980154 -0.198238 15.9847 4.50821)" stroke="#188CC5" stroke-width="0.8" stroke-linecap="round"/>
<line x1="0.4" y1="-0.4" x2="0.681791" y2="-0.4" transform="matrix(0.165975 0.98613 -0.991735 0.128301 16.993 4.85727)" stroke="#188CC5" stroke-width="0.8" stroke-linecap="round"/>
<ellipse cx="15.3916" cy="4.46576" rx="0.736365" ry="0.676558" transform="rotate(10 15.3916 4.46576)" fill="black"/>
<line x1="14.9778" y1="4.87532" x2="14.8807" y2="5.42603" stroke="#188CC5" stroke-width="0.8" stroke-linecap="round"/>
<ellipse cx="12.9626" cy="2.92447" rx="1.08375" ry="1.03493" transform="rotate(10 12.9626 2.92447)" fill="black"/>
<line x1="0.4" y1="-0.4" x2="1.62059" y2="-0.4" transform="matrix(0.654169 0.756349 -0.808563 0.58841 11.1468 0.740311)" stroke="#188CC5" stroke-width="0.8" stroke-linecap="round" stroke-linejoin="round"/>
<line x1="13.3221" y1="0.766712" x2="13.166" y2="1.65206" stroke="#188CC5" stroke-width="0.8" stroke-linecap="round" stroke-linejoin="round"/>
<line x1="0.4" y1="-0.4" x2="0.850314" y2="-0.4" transform="matrix(-0.711497 0.702689 -0.74311 -0.669169 13.843 3.9567)" stroke="#188CC5" stroke-width="0.8" stroke-linecap="round"/>
<ellipse cx="1.78108" cy="1.04019" rx="1.78108" ry="1.04019" transform="matrix(0.988069 -0.154011 0.194189 0.980964 15.7004 3.00002)" fill="black"/>
<line x1="0.4" y1="-0.4" x2="0.788449" y2="-0.4" transform="matrix(-0.200605 0.979672 -0.980154 -0.198238 15.9847 4.50821)" stroke="#188CC5" stroke-width="0.8" stroke-linecap="round"/>
<line x1="0.4" y1="-0.4" x2="0.681791" y2="-0.4" transform="matrix(0.165975 0.98613 -0.991735 0.128301 16.993 4.85727)" stroke="#188CC5" stroke-width="0.8" stroke-linecap="round"/>
<line x1="14.9778" y1="4.87532" x2="14.8807" y2="5.42603" stroke="#188CC5" stroke-width="0.8" stroke-linecap="round"/>
<ellipse cx="12.9626" cy="2.92447" rx="1.08375" ry="1.03493" transform="rotate(10 12.9626 2.92447)" fill="black"/>
<ellipse cx="14.2429" cy="4.14871" rx="0.613638" ry="0.563798" transform="rotate(10 14.2429 4.14871)" fill="black"/>
<line x1="0.4" y1="-0.4" x2="1.62059" y2="-0.4" transform="matrix(0.654169 0.756349 -0.808563 0.58841 11.1468 0.740311)" stroke="#188CC5" stroke-width="0.8" stroke-linecap="round" stroke-linejoin="round"/>
<line x1="13.3221" y1="0.766712" x2="13.166" y2="1.65206" stroke="#188CC5" stroke-width="0.8" stroke-linecap="round" stroke-linejoin="round"/>
<line x1="0.4" y1="-0.4" x2="0.850314" y2="-0.4" transform="matrix(-0.711497 0.702689 -0.74311 -0.669169 13.843 3.9567)" stroke="#188CC5" stroke-width="0.8" stroke-linecap="round"/>
<ellipse cx="1.78108" cy="1.04019" rx="1.78108" ry="1.04019" transform="matrix(0.988069 -0.154011 0.194189 0.980964 15.7004 3.00002)" fill="black"/>
<line x1="0.4" y1="-0.4" x2="0.788449" y2="-0.4" transform="matrix(-0.200605 0.979672 -0.980154 -0.198238 15.9847 4.50821)" stroke="#188CC5" stroke-width="0.8" stroke-linecap="round"/>
<line x1="0.4" y1="-0.4" x2="0.681791" y2="-0.4" transform="matrix(0.165975 0.98613 -0.991735 0.128301 16.993 4.85727)" stroke="#188CC5" stroke-width="0.8" stroke-linecap="round"/>
<ellipse cx="15.3916" cy="4.46576" rx="0.736365" ry="0.676558" transform="rotate(10 15.3916 4.46576)" fill="black"/>
<line x1="14.9778" y1="4.87532" x2="14.8807" y2="5.42603" stroke="#188CC5" stroke-width="0.8" stroke-linecap="round"/>
<path d="M2.51518 15.575H3.14018L2.45518 19H1.61518L0.920177 15.575H1.53518L1.82518 17.115C1.85518 17.285 1.89518 17.5433 1.94518 17.89C1.99851 18.2367 2.03018 18.4283 2.04018 18.465C2.05351 18.4017 2.08518 18.1933 2.13518 17.84C2.18518 17.4867 2.22018 17.2467 2.24018 17.12L2.51518 15.575ZM4.84998 15.575H6.49498V16.1H5.44998V17.005H6.35498V17.53H5.44998V18.475H6.49498V19H4.84998V15.575ZM9.77553 15.575H10.3705V19H9.76553C9.27553 17.75 8.99553 17.0233 8.92553 16.82C8.85553 16.6133 8.81719 16.5 8.81053 16.48C8.81053 16.4867 8.81886 16.5483 8.83553 16.665C8.87886 16.9683 8.90053 17.3433 8.90053 17.79V19H8.31053V15.575H8.92553C9.34886 16.645 9.59386 17.275 9.66053 17.465C9.7272 17.655 9.77553 17.8017 9.80553 17.905C9.83886 18.005 9.85886 18.0633 9.86553 18.08C9.86553 18.0667 9.8572 18.0033 9.84053 17.89C9.79719 17.5567 9.77553 17.1783 9.77553 16.755V15.575ZM13.9482 15.575V16.1H13.3132V19H12.7082V16.1H12.0732V15.575H13.9482ZM16.9565 15.575H17.5565V18.195C17.5565 18.455 17.4749 18.6633 17.3115 18.82C17.1482 18.9733 16.9065 19.05 16.5865 19.05C16.2699 19.05 16.0299 18.9733 15.8665 18.82C15.7065 18.6633 15.6265 18.455 15.6265 18.195V15.575H16.2265V18.165C16.2265 18.3917 16.3482 18.505 16.5915 18.505C16.8349 18.505 16.9565 18.3917 16.9565 18.165V15.575ZM20.0734 17.71V19H19.4734V15.575H20.4834C20.7534 15.575 20.9618 15.6417 21.1084 15.775C21.2584 15.905 21.3334 16.0917 21.3334 16.335V16.92C21.3334 17.3067 21.1934 17.55 20.9134 17.65L21.4534 19H20.7934L20.3184 17.71H20.0734ZM20.0734 16.09V17.225H20.4234C20.5334 17.225 20.6118 17.2017 20.6584 17.155C20.7084 17.105 20.7334 17.025 20.7334 16.915V16.38C20.7334 16.1867 20.6301 16.09 20.4234 16.09H20.0734ZM23.2318 15.575H24.8768V16.1H23.8318V17.005H24.7368V17.53H23.8318V18.475H24.8768V19H23.2318V15.575ZM28.975 16.345C28.975 16.095 29.06 15.9 29.23 15.76C29.4033 15.62 29.6633 15.55 30.01 15.55C30.2366 15.55 30.44 15.575 30.62 15.625V16.175C30.42 16.1183 30.2283 16.09 30.045 16.09C29.865 16.09 29.7416 16.1167 29.675 16.17C29.6116 16.22 29.58 16.295 29.58 16.395V18.18C29.58 18.3833 29.725 18.485 30.015 18.485C30.2583 18.485 30.465 18.4583 30.635 18.405V18.95C30.455 19 30.2433 19.025 30 19.025C29.3166 19.025 28.975 18.7617 28.975 18.235V16.345ZM33.9014 19L33.7364 18.145H32.9664L32.8064 19H32.2314L32.9414 15.575H33.7764L34.4814 19H33.9014ZM33.0614 17.635H33.6364L33.3464 16.115L33.0614 17.635ZM37.46 16.4C37.46 16.2 37.355 16.1 37.145 16.1H36.805V17.42H37.145C37.355 17.42 37.46 17.3183 37.46 17.115V16.4ZM36.2 15.575H37.21C37.48 15.575 37.6883 15.6417 37.835 15.775C37.985 15.9083 38.06 16.0967 38.06 16.34V17.175C38.06 17.4183 37.985 17.6067 37.835 17.74C37.6883 17.8733 37.48 17.94 37.21 17.94H36.805V19H36.2V15.575ZM39.89 15.575H40.495V19H39.89V15.575ZM44.0726 15.575V16.1H43.4376V19H42.8326V16.1H42.1976V15.575H44.0726ZM47.226 19L47.061 18.145H46.291L46.131 19H45.556L46.266 15.575H47.101L47.806 19H47.226ZM46.386 17.635H46.961L46.671 16.115L46.386 17.635ZM49.5246 15.575H50.1296V18.49H51.0946V19H49.5246V15.575Z" fill="#090909"/>
<path d="M3.41352 6.796C3.62952 6.796 3.79752 6.836 3.91752 6.916C3.98152 6.956 4.00552 7.016 3.98952 7.096L3.79752 8.212C3.78952 8.308 3.73352 8.336 3.62952 8.296C3.51752 8.264 3.41352 8.248 3.31752 8.248C3.22152 8.248 3.13352 8.26 3.05352 8.284C2.82952 8.316 2.64552 8.444 2.50152 8.668C2.36552 8.884 2.29752 9.144 2.29752 9.448V12.844C2.29752 12.884 2.28152 12.92 2.24952 12.952C2.22552 12.976 2.19352 12.988 2.15352 12.988H1.04952C1.00952 12.988 0.973516 12.976 0.941516 12.952C0.917516 12.92 0.905516 12.884 0.905516 12.844V7.012C0.905516 6.972 0.917516 6.94 0.941516 6.916C0.973516 6.884 1.00952 6.868 1.04952 6.868H2.15352C2.19352 6.868 2.22552 6.884 2.24952 6.916C2.28152 6.94 2.29752 6.972 2.29752 7.012V7.564C2.29752 7.596 2.30552 7.616 2.32152 7.624C2.33752 7.624 2.34952 7.608 2.35752 7.576C2.57352 7.056 2.92552 6.796 3.41352 6.796ZM6.63692 13.096C5.97292 13.096 5.44892 12.92 5.06492 12.568C4.68892 12.216 4.50092 11.74 4.50092 11.14V8.728C4.50092 8.136 4.69292 7.664 5.07692 7.312C5.46092 6.952 5.98092 6.772 6.63692 6.772C7.30092 6.772 7.82492 6.952 8.20892 7.312C8.59292 7.664 8.78492 8.136 8.78492 8.728V11.14C8.78492 11.74 8.59292 12.216 8.20892 12.568C7.83292 12.92 7.30892 13.096 6.63692 13.096ZM6.63692 11.884C6.86092 11.884 7.04092 11.808 7.17692 11.656C7.32092 11.496 7.39292 11.288 7.39292 11.032V8.824C7.39292 8.576 7.32092 8.372 7.17692 8.212C7.04092 8.052 6.86092 7.972 6.63692 7.972C6.41292 7.972 6.23292 8.052 6.09692 8.212C5.96092 8.364 5.89292 8.568 5.89292 8.824V11.032C5.89292 11.288 5.96092 11.496 6.09692 11.656C6.23292 11.808 6.41292 11.884 6.63692 11.884ZM12.3206 6.772C12.8486 6.772 13.2606 6.944 13.5566 7.288C13.8606 7.632 14.0126 8.108 14.0126 8.716V11.152C14.0126 11.744 13.8646 12.216 13.5686 12.568C13.2726 12.92 12.8566 13.096 12.3206 13.096C11.8886 13.096 11.5286 12.956 11.2406 12.676C11.2246 12.66 11.2086 12.656 11.1926 12.664C11.1766 12.672 11.1686 12.688 11.1686 12.712V12.856C11.1686 12.896 11.1526 12.932 11.1206 12.964C11.0966 12.988 11.0646 13 11.0246 13H9.92061C9.88061 13 9.84461 12.988 9.81261 12.964C9.78861 12.932 9.77661 12.896 9.77661 12.856V4.744C9.77661 4.704 9.78861 4.672 9.81261 4.648C9.84461 4.616 9.88061 4.6 9.92061 4.6H11.0246C11.0646 4.6 11.0966 4.616 11.1206 4.648C11.1526 4.672 11.1686 4.704 11.1686 4.744V7.168C11.1686 7.192 11.1766 7.208 11.1926 7.216C11.2166 7.216 11.2406 7.2 11.2646 7.168C11.4166 7.032 11.5846 6.932 11.7686 6.868C11.9606 6.804 12.1446 6.772 12.3206 6.772ZM12.6326 8.824C12.6326 8.568 12.5646 8.364 12.4286 8.212C12.2926 8.052 12.1126 7.972 11.8886 7.972C11.6966 7.972 11.5366 8.036 11.4086 8.164C11.2806 8.284 11.2006 8.448 11.1686 8.656V11.212C11.2006 11.42 11.2806 11.588 11.4086 11.716C11.5366 11.836 11.6966 11.896 11.8886 11.896C12.1126 11.896 12.2926 11.82 12.4286 11.668C12.5646 11.508 12.6326 11.3 12.6326 11.044V8.824ZM17.0549 13.096C16.3909 13.096 15.8669 12.92 15.4829 12.568C15.1069 12.216 14.9189 11.74 14.9189 11.14V8.728C14.9189 8.136 15.1109 7.664 15.4949 7.312C15.8789 6.952 16.3989 6.772 17.0549 6.772C17.7189 6.772 18.2429 6.952 18.6269 7.312C19.0109 7.664 19.2029 8.136 19.2029 8.728V11.14C19.2029 11.74 19.0109 12.216 18.6269 12.568C18.2509 12.92 17.7269 13.096 17.0549 13.096ZM17.0549 11.884C17.2789 11.884 17.4589 11.808 17.5949 11.656C17.7389 11.496 17.8109 11.288 17.8109 11.032V8.824C17.8109 8.576 17.7389 8.372 17.5949 8.212C17.4589 8.052 17.2789 7.972 17.0549 7.972C16.8309 7.972 16.6509 8.052 16.5149 8.212C16.3789 8.364 16.3109 8.568 16.3109 8.824V11.032C16.3109 11.288 16.3789 11.496 16.5149 11.656C16.6509 11.808 16.8309 11.884 17.0549 11.884ZM22.7626 7.708C22.7626 7.748 22.7466 7.784 22.7146 7.816C22.6906 7.84 22.6586 7.852 22.6186 7.852H21.8746C21.8346 7.852 21.8146 7.872 21.8146 7.912V11.056C21.8146 11.336 21.8666 11.532 21.9706 11.644C22.0746 11.748 22.2306 11.796 22.4386 11.788H22.5226C22.5626 11.788 22.5946 11.804 22.6186 11.836C22.6506 11.86 22.6666 11.892 22.6666 11.932V12.856C22.6666 12.896 22.6506 12.932 22.6186 12.964C22.5946 12.988 22.5626 13 22.5226 13H22.1146C21.5706 13 21.1586 12.9 20.8786 12.7C20.6066 12.5 20.4706 12.124 20.4706 11.572V7.912C20.4706 7.872 20.4506 7.852 20.4106 7.852H19.9906C19.9506 7.852 19.9146 7.84 19.8826 7.816C19.8586 7.784 19.8466 7.748 19.8466 7.708V7.012C19.8466 6.972 19.8586 6.94 19.8826 6.916C19.9146 6.884 19.9506 6.868 19.9906 6.868H20.4106C20.4506 6.868 20.4706 6.848 20.4706 6.808V5.488C20.4706 5.448 20.4826 5.416 20.5066 5.392C20.5386 5.36 20.5746 5.344 20.6146 5.344H21.6706C21.7106 5.344 21.7426 5.36 21.7666 5.392C21.7986 5.416 21.8146 5.448 21.8146 5.488V6.808C21.8146 6.848 21.8346 6.868 21.8746 6.868H22.6186C22.6586 6.868 22.6906 6.884 22.7146 6.916C22.7466 6.94 22.7626 6.972 22.7626 7.012V7.708ZM24.3133 6.028C24.0653 6.028 23.8613 5.948 23.7013 5.788C23.5413 5.628 23.4613 5.424 23.4613 5.176C23.4613 4.928 23.5413 4.724 23.7013 4.564C23.8613 4.404 24.0653 4.324 24.3133 4.324C24.5613 4.324 24.7613 4.404 24.9133 4.564C25.0733 4.724 25.1533 4.928 25.1533 5.176C25.1533 5.424 25.0733 5.628 24.9133 5.788C24.7533 5.948 24.5533 6.028 24.3133 6.028ZM23.7733 13C23.7333 13 23.6973 12.988 23.6653 12.964C23.6413 12.932 23.6293 12.896 23.6293 12.856V7.012C23.6293 6.972 23.6413 6.94 23.6653 6.916C23.6973 6.884 23.7333 6.868 23.7733 6.868H24.8773C24.9173 6.868 24.9493 6.884 24.9733 6.916C25.0053 6.94 25.0213 6.972 25.0213 7.012V12.856C25.0213 12.896 25.0053 12.932 24.9733 12.964C24.9493 12.988 24.9173 13 24.8773 13H23.7733ZM26.0394 13C25.9994 13 25.9634 12.988 25.9314 12.964C25.9074 12.932 25.8954 12.896 25.8954 12.856V11.836C25.8954 11.772 25.9114 11.712 25.9434 11.656L28.0074 8.2C28.0314 8.152 28.0194 8.128 27.9714 8.128H26.0874C26.0474 8.128 26.0114 8.116 25.9794 8.092C25.9554 8.06 25.9434 8.024 25.9434 7.984V7.012C25.9434 6.972 25.9554 6.94 25.9794 6.916C26.0114 6.884 26.0474 6.868 26.0874 6.868H29.5554C29.5954 6.868 29.6274 6.884 29.6514 6.916C29.6834 6.94 29.6994 6.972 29.6994 7.012V8.032C29.6994 8.096 29.6834 8.156 29.6514 8.212L27.5274 11.668C27.5034 11.716 27.5154 11.74 27.5634 11.74H29.6154C29.6554 11.74 29.6874 11.756 29.7114 11.788C29.7434 11.812 29.7594 11.844 29.7594 11.884V12.856C29.7594 12.896 29.7434 12.932 29.7114 12.964C29.6874 12.988 29.6554 13 29.6154 13H26.0394ZM32.6654 6.772C33.2974 6.772 33.8094 6.956 34.2014 7.324C34.5934 7.692 34.7894 8.176 34.7894 8.776V12.856C34.7894 12.896 34.7734 12.932 34.7414 12.964C34.7174 12.988 34.6854 13 34.6454 13H33.5414C33.5014 13 33.4654 12.988 33.4334 12.964C33.4094 12.932 33.3974 12.896 33.3974 12.856V12.628C33.3974 12.604 33.3894 12.588 33.3734 12.58C33.3574 12.572 33.3414 12.58 33.3254 12.604C33.0454 12.932 32.6374 13.096 32.1014 13.096C31.6454 13.096 31.2414 12.968 30.8894 12.712C30.5454 12.448 30.3734 11.972 30.3734 11.284C30.3734 10.564 30.5814 10.052 30.9974 9.748C31.4214 9.444 31.9934 9.292 32.7134 9.292H33.3374C33.3774 9.292 33.3974 9.272 33.3974 9.232V8.92C33.3974 8.632 33.3254 8.404 33.1814 8.236C33.0374 8.06 32.8574 7.972 32.6414 7.972C32.4734 7.972 32.3334 8.028 32.2214 8.14C32.1094 8.244 32.0414 8.388 32.0174 8.572C32.0094 8.668 31.9574 8.716 31.8614 8.716H30.6974C30.6014 8.716 30.5574 8.668 30.5654 8.572C30.6054 8.028 30.8174 7.592 31.2014 7.264C31.5934 6.936 32.0814 6.772 32.6654 6.772ZM32.4854 11.944C32.7254 11.944 32.9374 11.868 33.1214 11.716C33.3054 11.564 33.3974 11.352 33.3974 11.08V10.396C33.3974 10.356 33.3774 10.336 33.3374 10.336H32.7134C32.4414 10.336 32.2214 10.412 32.0534 10.564C31.8854 10.708 31.8014 10.92 31.8014 11.2C31.8014 11.448 31.8654 11.636 31.9934 11.764C32.1214 11.884 32.2854 11.944 32.4854 11.944ZM38.3485 7.708C38.3485 7.748 38.3325 7.784 38.3005 7.816C38.2765 7.84 38.2445 7.852 38.2045 7.852H37.4605C37.4205 7.852 37.4005 7.872 37.4005 7.912V11.056C37.4005 11.336 37.4525 11.532 37.5565 11.644C37.6605 11.748 37.8165 11.796 38.0245 11.788H38.1085C38.1485 11.788 38.1805 11.804 38.2045 11.836C38.2365 11.86 38.2525 11.892 38.2525 11.932V12.856C38.2525 12.896 38.2365 12.932 38.2045 12.964C38.1805 12.988 38.1485 13 38.1085 13H37.7005C37.1565 13 36.7445 12.9 36.4645 12.7C36.1925 12.5 36.0565 12.124 36.0565 11.572V7.912C36.0565 7.872 36.0365 7.852 35.9965 7.852H35.5765C35.5365 7.852 35.5005 7.84 35.4685 7.816C35.4445 7.784 35.4325 7.748 35.4325 7.708V7.012C35.4325 6.972 35.4445 6.94 35.4685 6.916C35.5005 6.884 35.5365 6.868 35.5765 6.868H35.9965C36.0365 6.868 36.0565 6.848 36.0565 6.808V5.488C36.0565 5.448 36.0685 5.416 36.0925 5.392C36.1245 5.36 36.1605 5.344 36.2005 5.344H37.2565C37.2965 5.344 37.3285 5.36 37.3525 5.392C37.3845 5.416 37.4005 5.448 37.4005 5.488V6.808C37.4005 6.848 37.4205 6.868 37.4605 6.868H38.2045C38.2445 6.868 38.2765 6.884 38.3005 6.916C38.3325 6.94 38.3485 6.972 38.3485 7.012V7.708ZM39.8992 6.028C39.6512 6.028 39.4472 5.948 39.2872 5.788C39.1272 5.628 39.0472 5.424 39.0472 5.176C39.0472 4.928 39.1272 4.724 39.2872 4.564C39.4472 4.404 39.6512 4.324 39.8992 4.324C40.1472 4.324 40.3472 4.404 40.4992 4.564C40.6592 4.724 40.7392 4.928 40.7392 5.176C40.7392 5.424 40.6592 5.628 40.4992 5.788C40.3392 5.948 40.1392 6.028 39.8992 6.028ZM39.3592 13C39.3192 13 39.2832 12.988 39.2512 12.964C39.2272 12.932 39.2152 12.896 39.2152 12.856V7.012C39.2152 6.972 39.2272 6.94 39.2512 6.916C39.2832 6.884 39.3192 6.868 39.3592 6.868H40.4632C40.5032 6.868 40.5352 6.884 40.5592 6.916C40.5912 6.94 40.6072 6.972 40.6072 7.012V12.856C40.6072 12.896 40.5912 12.932 40.5592 12.964C40.5352 12.988 40.5032 13 40.4632 13H39.3592ZM43.7854 13.096C43.1214 13.096 42.5974 12.92 42.2134 12.568C41.8374 12.216 41.6494 11.74 41.6494 11.14V8.728C41.6494 8.136 41.8414 7.664 42.2254 7.312C42.6094 6.952 43.1294 6.772 43.7854 6.772C44.4494 6.772 44.9734 6.952 45.3574 7.312C45.7414 7.664 45.9334 8.136 45.9334 8.728V11.14C45.9334 11.74 45.7414 12.216 45.3574 12.568C44.9814 12.92 44.4574 13.096 43.7854 13.096ZM43.7854 11.884C44.0094 11.884 44.1894 11.808 44.3254 11.656C44.4694 11.496 44.5414 11.288 44.5414 11.032V8.824C44.5414 8.576 44.4694 8.372 44.3254 8.212C44.1894 8.052 44.0094 7.972 43.7854 7.972C43.5614 7.972 43.3814 8.052 43.2454 8.212C43.1094 8.364 43.0414 8.568 43.0414 8.824V11.032C43.0414 11.288 43.1094 11.496 43.2454 11.656C43.3814 11.808 43.5614 11.884 43.7854 11.884ZM49.553 6.772C50.073 6.772 50.465 6.948 50.729 7.3C51.001 7.644 51.137 8.136 51.137 8.776V12.856C51.137 12.896 51.121 12.932 51.089 12.964C51.065 12.988 51.033 13 50.993 13H49.889C49.849 13 49.813 12.988 49.781 12.964C49.757 12.932 49.745 12.896 49.745 12.856V8.884C49.745 8.596 49.685 8.372 49.565 8.212C49.445 8.052 49.273 7.972 49.049 7.972C48.817 7.972 48.637 8.056 48.509 8.224C48.381 8.392 48.317 8.624 48.317 8.92V12.856C48.317 12.896 48.301 12.932 48.269 12.964C48.245 12.988 48.213 13 48.173 13H47.069C47.029 13 46.993 12.988 46.961 12.964C46.937 12.932 46.925 12.896 46.925 12.856V7.012C46.925 6.972 46.937 6.94 46.961 6.916C46.993 6.884 47.029 6.868 47.069 6.868H48.173C48.213 6.868 48.245 6.884 48.269 6.916C48.301 6.94 48.317 6.972 48.317 7.012V7.252C48.317 7.276 48.325 7.292 48.341 7.3C48.365 7.3 48.389 7.284 48.413 7.252C48.685 6.932 49.065 6.772 49.553 6.772Z" fill="black"/>
</svg>
